<?xml version="1.0" encoding="UTF-8" standalone="no"?>
<svg
   width="48px"
   height="48px"
   viewBox="0 0 48 48"
   version="1.1"
   id="svg2"
   sodipodi:docname="fashion.svg"
   inkscape:version="1.4 (e7c3feb100, 2024-10-09)"
   xmlns:inkscape="http://www.inkscape.org/namespaces/inkscape"
   xmlns:sodipodi="http://sodipodi.sourceforge.net/DTD/sodipodi-0.dtd"
   xmlns="http://www.w3.org/2000/svg"
   xmlns:svg="http://www.w3.org/2000/svg"
   xmlns:rdf="http://www.w3.org/1999/02/22-rdf-syntax-ns#"
   xmlns:cc="http://creativecommons.org/ns#"
   xmlns:dc="http://purl.org/dc/elements/1.1/">
  <sodipodi:namedview
     id="namedview2"
     pagecolor="#505050"
     bordercolor="#eeeeee"
     borderopacity="1"
     inkscape:showpageshadow="0"
     inkscape:pageopacity="0"
     inkscape:pagecheckerboard="0"
     inkscape:deskcolor="#d1d1d1"
     inkscape:zoom="8.7062522"
     inkscape:cx="0.22971997"
     inkscape:cy="25.326627"
     inkscape:window-width="1600"
     inkscape:window-height="782"
     inkscape:window-x="0"
     inkscape:window-y="24"
     inkscape:window-maximized="1"
     inkscape:current-layer="svg2" />
  <!-- Generator: Sketch 3.8.3 (29802) - http://www.bohemiancoding.com/sketch -->
  <title
     id="title1">时钟底板</title>
  <desc
     id="desc1">Created with Sketch.</desc>
  <defs
     id="defs1">
    <circle
       id="path-1"
       cx="21"
       cy="21"
       r="21" />
    <filter
       x="-0.057142857"
       y="-0.057142857"
       width="1.1142857"
       height="1.1380952"
       filterUnits="objectBoundingBox"
       id="filter-2">
      <feOffset
         dx="0"
         dy="1"
         in="SourceAlpha"
         result="shadowOffsetOuter1"
         id="feOffset1" />
      <feGaussianBlur
         stdDeviation="1"
         in="shadowOffsetOuter1"
         result="shadowBlurOuter1"
         id="feGaussianBlur1" />
      <feColorMatrix
         values="0 0 0 0 0   0 0 0 0 0   0 0 0 0 0  0 0 0 0.2 0"
         type="matrix"
         in="shadowBlurOuter1"
         id="feColorMatrix1" />
    </filter>
  </defs>
  <circle
     cx="16"
     cy="16"
     r="16"
     opacity="0.2"
     id="circle1"
     style="display:inline;fill:#ffffff;fill-opacity:1;opacity:1"
     transform="matrix(1.3153357,0,0,1.3081569,2.7,2.9546297)" />
  <path
     d="m 15.669803,8 h 0.660394 c 2.202261,0 4.096045,2.067382 4.229885,4.617627 l 0.02006,0.382325 c 0.145952,2.781031 0.954186,5.519596 2.405056,7.975574 L 23,21 H 9 l 0.014797,-0.02447 c 1.45087,-2.455978 2.259104,-5.194543 2.405056,-7.975574 l 0.02007,-0.382325 C 11.573758,10.067382 13.467542,8 15.669803,8 Z M 14,22 h 4 c 0,1.104569 -0.895431,2 -2,2 -1.104569,0 -2,-0.895431 -2,-2 z"
     id="path1"
     style="display:inline;fill:#0c8cff;fill-opacity:1"
     transform="matrix(1.3153357,0,0,1.3081569,2.7,2.9546297)" />
  <metadata
     id="metadata2">
    <rdf:RDF>
      <cc:Work
         rdf:about="">
        <dc:title>时钟底板</dc:title>
      </cc:Work>
    </rdf:RDF>
  </metadata>
</svg>
